<svg width="580" height="400" xmlns="http://www.w3.org/2000/svg">
 <!-- Created with Method Draw - http://github.com/duopixel/Method-Draw/ -->
 <g>
  <title>background</title>
  <rect fill="#fff" id="canvas_background" height="402" width="582" y="-1" x="-1"/>
  <g display="none" overflow="visible" y="0" x="0" height="100%" width="100%" id="canvasGrid">
   <rect fill="url(#gridpattern)" stroke-width="0" y="0" x="0" height="100%" width="100%"/>
  </g>
 </g>
 <g>
  <title>Layer 1</title>
  <path d="m106,240c0,0 0,-3 0,-12c0,-8 2.371361,-27.02829 3,-34c1.004059,-11.135162 6.47554,-33.593094 8,-42c0.35685,-1.967911 1,-5 2,-6c0,0 1,0 1,0c0,2 -0.268555,4.076889 1,8c1.656853,5.123947 5.647972,15.842041 9,31c3.727417,16.855453 5.161484,29.969055 7,40c1.096603,5.983093 1,9 1,9l0,0" id="svg_1" stroke-width="1.5" stroke="#000" fill="none"/>
  <path d="m110,204c1,0 3,0 5,0c2,0 5.907784,-1.496231 10,-2c2.977524,-0.366547 6,0 6,0c2,0 3,-1 3,-1c1,0 1,0 1,0l1,0" id="svg_2" stroke-width="1.5" stroke="#000" fill="none"/>
  <path d="m153,194c0,1 0,4 0,11c0,5 0,9 0,13c0,3 0,3 0,4c0,1 0,2 0,2c1,0 0.770248,-0.026749 1,-1c0.513748,-2.176254 2,-4 3,-7c1,-3 0.847229,-7.041321 2,-11c0.88414,-3.036163 1,-7 2,-10c1,-3 0.692551,-6.186005 2,-8c0.826904,-1.147263 1.61731,-2.076126 2,-3c0.541199,-1.306564 1,-1 2,-1c0,0 0.149353,0.474274 1,1c1.902115,1.175568 3,5 6,8c4,4 5.877823,7.007492 6,8c0.503769,4.092209 1,6 1,7c0,1 0,2 0,3c0,0 0,0 0,1c0,1 -1,1 -1,2c0,1 -0.292892,0.292892 -1,1c-0.707108,0.707108 0,1 0,2c0,0 0,1 0,1c0,1 0,1 0,2c0,1 0,2 0,2l0,0" id="svg_3" stroke-width="1.5" stroke="#000" fill="none"/>
  <path d="m198,184c0,1 0,4 0,7c0,3 0,6 0,7c0,2 0,4 0,5c0,2 0,3 0,4c0,3 0,4 0,6c0,1 0,2 0,3c0,1 0,1 0,2c0,1 0,2 0,2c0,1 0,-1 0,-1c0,-2 1,-4 1,-7c0,-2 -0.480545,-7.038742 0,-10c0.506546,-3.121445 1.496231,-6.907791 2,-11c0.366547,-2.977524 1.486252,-5.823746 2,-8c0.459503,-1.946503 1,-3 2,-4c0,0 1,-1 2,-1c1,0 1,0 2,0c1,0 1,0 2,0c1,0 1.796997,1.2565 3,2c2.689987,1.662506 4,2 5,3c1,1 2,2 2,3c0,1 0,1 0,2c0,1 0,2 0,4c0,1 0,2 0,3c0,0 0,1 0,2c0,1 0,2 0,2c0,1 0,2 0,3c0,2 0,3 0,5c0,1 0,2 0,3c0,1 0,3 0,4c0,1 0,2 0,3c0,0 0,1 0,1l0,0" id="svg_4" stroke-width="1.5" stroke="#000" fill="none"/>
  <path d="m241,184c0,1 0,2 0,8c0,3 0,8 0,9c0,3 0,4 0,5c0,1 0,1 0,2c0,0 -0.707108,0.292892 0,1c0.707108,0.707108 1,0 1,1c0,1 0,1 0,1l1,0" id="svg_5" stroke-width="1.5" stroke="#000" fill="none"/>
  <path d="m258,203c0,0 0.712006,-0.981628 6,-2c1.963898,-0.37822 6.152252,-2.234634 8,-3c2.613129,-1.082397 2.693451,-3.458801 4,-4c0.923889,-0.38269 1.38269,-1.076126 1,-2c-0.541199,-1.306564 -3.917603,-1.386871 -5,-4c-0.38269,-0.923874 -0.292908,-2.292892 -1,-3c-0.707092,-0.707108 -1,0 -4,0c-2,0 -5,0 -8,0c-2,0 -3.458801,-0.306564 -4,1c-0.38269,0.923874 -1,3 -1,4c0,1 0,2 0,4c0,2 0,6 0,11c0,2 0,4 0,5c0,1 0.520157,2.323669 2,4c2.386169,2.703003 5.881531,4.190277 9,6c1.93399,1.122345 5.026764,3.770248 6,4c2.176239,0.513748 2,1 3,1c1,0 1.292908,-0.292892 2,-1c0.707092,-0.707108 2,-2 3,-2l0,0" id="svg_8" stroke-width="1.5" stroke="#000" fill="none"/>
 </g>
</svg>