<svg id="Layer_1" data-name="Layer 1" xmlns="http://www.w3.org/2000/svg" viewBox="0 0 2376 2376"><title>dilansignature-fragments</title><path d="M949.5,1125.6A92.3,92.3,0,0,1,989,1117a1.5,1.5,0,0,0,0-3,95.77,95.77,0,0,0-41,9c-1.75.81-.23,3.4,1.51,2.59Z"/><path d="M889.54,1121.17q6-6.59,12.7-12.53l-2.36-.3,18.19,38.81a1.51,1.51,0,0,0,2.36.3,93,93,0,0,1,29.07-21.85c1.74-.84.22-3.43-1.51-2.59a94.77,94.77,0,0,0-29.68,22.32l2.35.3-18.19-38.81a1.51,1.51,0,0,0-2.35-.3,172.57,172.57,0,0,0-12.7,12.53c-1.3,1.42.81,3.55,2.12,2.12Z"/><path d="M845.44,1139.52l13,26.24a1.51,1.51,0,0,0,2.59,0,163.58,163.58,0,0,1,28.48-44.59c1.29-1.43-.83-3.56-2.12-2.12a166.06,166.06,0,0,0-28.95,45.19h2.59L848,1138c-.86-1.73-3.44-.22-2.59,1.51Z"/><path d="M791.82,1146.38a385.26,385.26,0,0,0,33.75-52.1H823l22.46,45.24c.86,1.73,3.45.21,2.59-1.51l-22.46-45.25a1.51,1.51,0,0,0-2.59,0,386,386,0,0,1-33.75,52.11c-1.18,1.53,1.43,3,2.59,1.51Z"/><path d="M741.24,1170.9c6.34-8.49,10.82-18,14.53-27.88.68-1.82-2.2-2.57-2.9-.8a87.13,87.13,0,0,0-4.52,48.55,1.51,1.51,0,0,0,2.51.66,385.4,385.4,0,0,0,40.72-44.75c1.17-1.5-.93-3.64-2.12-2.12a384.6,384.6,0,0,1-40.73,44.75l2.51.66a84.35,84.35,0,0,1,4.53-47l-2.9-.8c-3.61,9.64-8,18.89-14.22,27.16-1.16,1.55,1.44,3,2.59,1.52Z"/><path d="M682.18,1100.76a104.31,104.31,0,0,0-12.1,44c-.52,12.82.64,28.45,10.52,37.86,7.56,7.21,18.58,9.53,28.71,8.24,13.12-1.66,23.68-9.47,31.69-19.67,1.18-1.5-.93-3.64-2.12-2.12-7.09,9-16.23,16.41-27.77,18.5-10.22,1.85-21.89-.16-29.28-8-9.19-9.69-9.51-25.77-8.55-38.32a101.15,101.15,0,0,1,11.5-39c.89-1.71-1.7-3.23-2.6-1.51Z"/><path d="M750.12,1083.46c.17-7.15-.83-15.18-5.88-20.68-5.59-6.1-14.14-6.07-21.3-3-17.61,7.6-31.81,24.47-40.76,41-.92,1.69,1.67,3.21,2.6,1.51,7.69-14.16,18.4-26.61,31.9-35.52,7.06-4.65,17.27-9.61,24.62-2.68,5.17,4.87,6,12.71,5.82,19.39,0,1.93,3,1.93,3,0Z"/><path d="M665.1,1189.68A172.24,172.24,0,0,0,719.84,1146a166.12,166.12,0,0,0,19-28.46c5.61-10.67,10.55-21.86,11.26-34,.11-1.93-2.89-1.92-3,0-.73,12.36-6.1,23.83-11.94,34.57a163.57,163.57,0,0,1-19.44,28.17,170.24,170.24,0,0,1-52.16,40.89c-1.72.88-.2,3.47,1.52,2.59Z"/><path d="M588.79,1179.18c4.41,13.77,11.37,25.32,27.35,25.31,16.69,0,34.28-7.53,49-14.81,1.72-.85.21-3.44-1.52-2.59-13.15,6.53-27.87,12.39-42.56,14.09-7.41.86-15.17,0-20.65-5.55-4.59-4.64-6.75-11.18-8.69-17.25-.59-1.83-3.48-1.05-2.89.8Z"/><path d="M562.9,1002.52c-1.58,29.75,1.19,59.78,5.61,89.19a576.39,576.39,0,0,0,20.28,87.47c.57,1.83,3.47,1,2.89-.8a577.22,577.22,0,0,1-20-85.57c-4.58-29.74-7.39-60.19-5.79-90.29.1-1.93-2.9-1.92-3,0Z"/><path d="M572.2,951.88c-5.54,16.38-8.26,33.42-9.3,50.64-.12,1.93,2.88,1.93,3,0,1-17,3.74-33.71,9.19-49.85.62-1.83-2.27-2.62-2.89-.79Z"/><path d="M628.26,955.17c1.14-14.75,3-42.47-18.68-43.06-8.6-.24-16.43,5.38-22,11.39-7.5,8-11.74,18.15-15.34,28.38-.64,1.82,2.25,2.61,2.89.79,5.09-14.44,15-36.71,33.23-37.55,20.53-1,17.95,27,16.94,40-.15,1.92,2.85,1.91,3,0Z"/><path d="M600.6,1083.86a503.62,503.62,0,0,0,27.66-128.69c.16-1.93-2.84-1.92-3,0a500.54,500.54,0,0,1-27.55,127.89c-.65,1.83,2.25,2.61,2.89.8Z"/><path d="M537.63,1195.12c30.38-30.22,48.62-71.5,63-111.26.66-1.82-2.24-2.6-2.89-.8-14.17,39.24-32.21,80.1-62.21,109.94a1.5,1.5,0,0,0,2.13,2.12Z"/><path d="M455.53,1209.28a189.65,189.65,0,0,0,21.87-47.65l-2.51.66c13.38,13,4.1,35.43,16.83,49.31,5,5.46,12.11,6.7,18.88,3.8,10.1-4.32,19.24-12.71,27-20.28,1.38-1.34-.74-3.46-2.13-2.12-7.15,7-15.1,14.1-24.05,18.66-10.37,5.3-18.49-.28-22.37-10.22-5.26-13.5-.71-30.28-12.07-41.27a1.51,1.51,0,0,0-2.5.67,186.56,186.56,0,0,1-21.57,46.92c-1.05,1.63,1.55,3.14,2.59,1.52Z"/><path d="M384.49,1027.59c-3.71,38.14,0,77,5.11,114.84a826,826,0,0,0,22.76,111,1.52,1.52,0,0,0,2.5.67,188.6,188.6,0,0,0,40.67-44.8c1.05-1.63-1.54-3.13-2.59-1.52a185.88,185.88,0,0,1-40.2,44.19l2.51.67a823.1,823.1,0,0,1-22.9-112.09c-4.92-37.24-8.51-75.43-4.86-112.94.18-1.92-2.82-1.91-3,0Z"/><path d="M420.2,938.27c-22.55,24.58-32.31,56.72-35.71,89.32-.2,1.92,2.8,1.9,3,0,3.31-31.76,12.86-63.25,34.84-87.2,1.3-1.42-.82-3.55-2.13-2.12Z"/><path d="M421.31,1182.27c10.92-28.71,13-59.88,13.88-90.31a693.26,693.26,0,0,0-4.11-98.55Q428,966,422.71,938.93c-.36-1.9-3.26-1.09-2.89.79a696.42,696.42,0,0,1,12.63,123.9c.45,39.09,0,80.87-14,117.85-.69,1.81,2.21,2.59,2.89.8Z"/><path d="M354.14,1245.59c32.3-7.2,55.42-33.54,67.17-63.32.71-1.79-2.19-2.57-2.89-.8-11.37,28.83-33.84,54.26-65.08,61.22-1.88.42-1.09,3.32.8,2.9Z"/><path d="M327.32,1170.69c-8.51,16.68-15.73,37.85-13.26,56.85,1,7.51,4.49,14.33,11.77,17.34,8.67,3.6,19.35,2.48,28.31.71,1.89-.38,1.09-3.27-.8-2.9-8.4,1.66-19.43,3-27.42-1-7.56-3.77-9.25-12.47-9.21-20.16.11-17,5.53-34.26,13.2-49.29.88-1.72-1.71-3.24-2.59-1.52Z"/><path d="M400.75,1212.31a204.57,204.57,0,0,0-3.73-50.06c-2.25-11.14-5-25-14.73-32.36-9.9-7.45-20.21-.84-28.1,6.16a123,123,0,0,0-26.87,34.64c-.9,1.71,1.69,3.23,2.59,1.52a121.57,121.57,0,0,1,22.11-30c8.71-8.57,21.45-19.06,31.79-6.7,7.47,8.93,9.47,22.13,11.37,33.22a201.45,201.45,0,0,1,2.57,43.6c-.09,1.93,2.92,1.93,3,0Z"/></svg>