<svg id="Layer_1" data-name="Layer 1" xmlns="http://www.w3.org/2000/svg" viewBox="0 0 2376 2376"><title>Artboard 1</title><path d="M400.75,1212.31a205,205,0,0,0-1.47-36.4c-1.37-10.45-3.1-21.45-7-31.31-2.54-6.47-6.45-13.33-12.92-16.51-7-3.45-14.26-.69-20.11,3.73-15.6,11.77-27.82,28.66-35.59,46.47a121.18,121.18,0,0,0-8.22,26.83c-1.49,8.16-2.71,17-1,25.18,4,18.77,25.53,18.5,40.68,15,17.44-4,33-14.44,44.88-27.62,28.15-31.3,33-75.72,34.75-116a698.3,698.3,0,0,0-12.12-162.8,1.51,1.51,0,0,0-2.51-.66c-25.9,28.2-35,66.4-36.78,103.73-2.11,43.65,3.47,88.17,10.88,131.11q7,40.59,18.06,80.3a1.52,1.52,0,0,0,2.5.67,186.42,186.42,0,0,0,62.54-92.45l-2.51.66c13.94,13.5,3.06,37.84,18.55,51,6.71,5.68,14.84,3.93,21.83-.32a126.73,126.73,0,0,0,24-19.42c15-15.22,26.73-33.45,36.57-52.36a465.44,465.44,0,0,0,27.52-65.08,498.17,498.17,0,0,0,18.42-70.89q3.24-17.78,5.18-35.76c1.22-11.18,2.93-22.93,1.91-34.19-.7-7.65-3.14-15.66-9.87-20.12s-14.69-3.43-21.43.33c-18.08,10.07-25.41,33.18-29.8,52-5.29,22.71-6,46.26-4.79,69.46a560.6,560.6,0,0,0,8.73,73.64c4.58,24.83,10.06,50.47,19,74.14,3,7.83,7.46,15.32,15.74,18.26,9.24,3.29,19.65.76,28.77-1.74,37.47-10.28,70.73-34.39,93-66.16,9.86-14.08,20.14-31.44,21.79-48.91,1.28-13.5-4.36-31.35-21.35-28.16-9.56,1.8-18.41,9.12-25.41,15.55A103.37,103.37,0,0,0,670,1150.94c.25,9.88,1.64,20.69,7.9,28.73,4.92,6.31,12.38,10,20.2,11.12,17.79,2.62,33.51-6.89,43.81-20.83,6-8.17,10.28-17.47,13.83-26.94.68-1.82-2.2-2.57-2.9-.8a87.13,87.13,0,0,0-4.52,48.55,1.51,1.51,0,0,0,2.51.66,381,381,0,0,0,74.71-97.15H823l35.49,71.48a1.51,1.51,0,0,0,2.59,0,162.07,162.07,0,0,1,41.18-57.12l-2.36-.3,18.19,38.81a1.51,1.51,0,0,0,2.36.3A91,91,0,0,1,989,1117a1.5,1.5,0,0,0,0-3,94,94,0,0,0-70.69,31.36l2.35.3-18.19-38.81a1.51,1.51,0,0,0-2.35-.3,164.18,164.18,0,0,0-41.65,57.72h2.59l-35.49-71.48a1.51,1.51,0,0,0-2.59,0,378.14,378.14,0,0,1-74.25,96.55l2.51.66a84.35,84.35,0,0,1,4.53-47l-2.9-.8c-6.51,17.4-16.8,36.94-35.42,43.65-17.47,6.3-37.41-.22-42.45-19.27-9.48-35.85,10-77.47,39.31-98.23,7.53-5.33,19.19-12,27.27-4,5.22,5.19,5.94,13.63,5.46,20.58-1.15,16.45-10.81,32.81-19.82,46.19A167.15,167.15,0,0,1,645,1195c-8.62,3-18,6-27.19,6.42-12.11.5-19.68-6-23.93-16.85-7.8-19.94-12.54-41.7-16.88-62.63-8.68-41.85-14.5-86.33-10.31-129.09,2-20,6.27-42.55,17.22-59.77,5-7.79,12.82-16.07,22.32-17.75,10.49-1.85,17.37,6.68,19.13,16.08s.36,19.44-.48,28.87q-1.5,16.68-4.13,33.24a499.27,499.27,0,0,1-14.16,62.52c-11.51,38.94-27.11,78.54-50.35,112.1-11.05,16-24.55,30.67-41,41.24-4.48,2.89-9.8,5.8-15.27,4.13-4.34-1.32-7.37-5-9.42-8.89-4.09-7.75-4-16.44-5.12-24.91-1-7.32-3-14.3-8.41-19.57a1.51,1.51,0,0,0-2.5.67A183.71,183.71,0,0,1,412.74,1252l2.51.67a821.73,821.73,0,0,1-25.88-137.76c-3.91-39.12-6.44-79.9,3.56-118.36,5.39-20.75,14.82-40.24,29.4-56.11l-2.51-.67a695.92,695.92,0,0,1,12.67,128.78c.17,39.41-.27,82.36-16.57,119-13.59,30.52-43.21,58.15-78.59,56.53-5.17-.24-10.82-1-14.8-4.65-3.5-3.18-5-7.88-5.52-12.43-1.08-8.73.52-18,2.48-26.45a120.25,120.25,0,0,1,23.32-48.11c6-7.47,13.29-15.69,21.7-20.47,10.93-6.22,19.5,1.53,24,11.3,4.4,9.6,6.11,20.81,7.58,31.19a201.94,201.94,0,0,1,1.67,37.91c-.09,1.93,2.92,1.93,3,0Z"/></svg>