<svg xmlns="http://www.w3.org/2000/svg" viewBox="0 0 1227.9 1404.34"><defs><style>.cls-1{fill:gray;}.cls-2{fill:#f36c42;}</style></defs><title>fish_process</title><g id="Layer_2" data-name="Layer 2"><g id="Layer_1-2" data-name="Layer 1"><path class="cls-1" d="M1062.48,662.67c-.14,89.36-27.61,177.4-79.06,250.54-50,71.11-121.47,126.51-203.09,156.6a430,430,0,0,1-265.09,10c-83.6-23.85-158.74-73.64-213.92-140.74A435.74,435.74,0,0,1,203.9,696.39c-6.83-89.74,14.21-180.57,60.55-257.78a434.62,434.62,0,0,1,190-170.56c82-37.7,175.55-48.23,263.95-30.16,85.49,17.48,164.41,61.69,224.51,124.88A435.89,435.89,0,0,1,1057.27,595a443.7,443.7,0,0,1,5.21,67.71,1.5,1.5,0,0,0,3,0,442.35,442.35,0,0,0-21.17-135.18A437.25,437.25,0,0,0,895.52,316,429.82,429.82,0,0,0,394.93,297.8,436.66,436.66,0,0,0,201,628.25,443,443,0,0,0,211.83,766a436.17,436.17,0,0,0,242.34,294.43,430,430,0,0,0,388.52-16.11,436.52,436.52,0,0,0,217.79-315.19,450.73,450.73,0,0,0,5-66.46A1.5,1.5,0,0,0,1062.48,662.67Z"/><path class="cls-1" d="M1224.9,915.26A375.16,375.16,0,1,1,694.77,573.5C766.36,541,847.89,532,924.92,547.64a375.57,375.57,0,0,1,295.58,309.9,382,382,0,0,1,4.4,57.72,1.5,1.5,0,0,0,3,0c-.14-78.26-24.49-155.39-70-219.16a378.07,378.07,0,1,0,65.55,277,387.67,387.67,0,0,0,4.41-57.85A1.5,1.5,0,0,0,1224.9,915.26Z"/><path class="cls-1" d="M917.26,610.16a354.74,354.74,0,0,1-64.37,203.42C812.39,871,754.63,915.66,688.7,940a348.32,348.32,0,0,1-215.29,7.9c-67.44-19.38-128-59.58-172.61-113.72a352.86,352.86,0,0,1-79.06-197.28c-5.37-72.45,11.63-145.71,49-208.06a352.19,352.19,0,0,1,154.4-138.47,346.16,346.16,0,0,1,395.57,77.22A353.17,353.17,0,0,1,913.1,555.68a361.33,361.33,0,0,1,4.16,54.48,1.5,1.5,0,0,0,3,0c-.15-73.3-22.74-145.59-65.16-205.46a349.47,349.47,0,0,0-557.25-19.62,355.22,355.22,0,0,0,127,548.06,351.29,351.29,0,0,0,214.39,24c69.92-14.3,134.52-50.53,183.61-102.27a355.73,355.73,0,0,0,93.25-190.13,365.69,365.69,0,0,0,4.17-54.61A1.5,1.5,0,0,0,917.26,610.16Z"/><path class="cls-1" d="M733.62,354.44a350.2,350.2,0,1,1-4.26-55,358.76,358.76,0,0,1,4.26,55,1.5,1.5,0,0,0,3,0,353.68,353.68,0,1,0-4.16,54.4,362.89,362.89,0,0,0,4.16-54.4A1.5,1.5,0,0,0,733.62,354.44Z"/><path class="cls-1" d="M659.44,713.68a269.89,269.89,0,1,1-3.29-42.44,276.63,276.63,0,0,1,3.29,42.44,1.5,1.5,0,0,0,3,0,273.34,273.34,0,1,0-3.19,41.89,281,281,0,0,0,3.19-41.89A1.5,1.5,0,0,0,659.44,713.68Z"/><path class="cls-1" d="M513.34,992c-.34,8.4-6.77,15.43-15.43,15.43a15.44,15.44,0,0,1,0-30.87c8.68.09,15.09,7,15.43,15.44.08,1.92,3.08,1.93,3,0-.4-10.05-8.1-18.4-18.43-18.44a18.44,18.44,0,0,0,0,36.87c10.33,0,18-8.42,18.43-18.43C516.42,990,513.42,990,513.34,992Z"/><path class="cls-1" d="M974.44,871.3c-.28,61.31-39.16,117.63-97,138.62-58,21.07-124.55,3-164-44.47C673.76,917.75,668.6,848,700.74,795c32-52.88,95.43-80.6,156-68.15C916.2,739,963.16,788.29,972.65,848.21a152.58,152.58,0,0,1,1.79,23.09,1.5,1.5,0,0,0,3,0c-.29-62.51-39.8-119.61-98.58-141.28-59.5-21.94-128.31-3-168.39,46-39.8,48.71-45,119.21-12.32,173.08,32.5,53.66,96.52,81.88,158.07,69.8,61.19-12,110-62.77,119.43-124.41a158.31,158.31,0,0,0,1.79-23.22A1.5,1.5,0,0,0,974.44,871.3Z"/><path class="cls-1" d="M884.18,1041.54c-.28,78-49.94,149.59-123.51,176.2s-158.19,3.5-208.18-56.76c-50.24-60.55-56.79-148.93-16.08-216.26S657.78,842.13,734.83,858c75.22,15.54,134.73,77.72,147,153.54a191.41,191.41,0,0,1,2.37,30,1.5,1.5,0,0,0,3,0c-.28-78.95-50.27-151.21-124.47-178.63C687.62,835.15,600.8,858.75,550,920.48c-50.74,61.58-57.46,151-16.13,219.39C575,1208,656.27,1243.72,734.3,1228.2c77.19-15.36,138.62-79.45,150.62-157.25a197,197,0,0,0,2.26-29.41A1.5,1.5,0,0,0,884.18,1041.54Z"/><path class="cls-1" d="M884.26,1196.08c-.28,85.27-54.47,163.56-134.78,192.87A205.27,205.27,0,0,1,521,1327.25c-55.19-66.29-62.53-163.17-18-237a205.24,205.24,0,0,1,216.69-95.37c82.83,16.71,148.49,85.11,161.93,168.5a210,210,0,0,1,2.58,32.74,1.5,1.5,0,0,0,3,0,208.41,208.41,0,0,0-137-195.76c-82.1-30-176.75-4-232.19,63.48S455.41,1229.28,500.81,1304a208.27,208.27,0,0,0,219.74,96.19c84.22-17,151.13-87,164.23-172a214.19,214.19,0,0,0,2.48-32.19A1.5,1.5,0,0,0,884.26,1196.08Z"/><path class="cls-1" d="M893.28,989c-.29,40.43-25.79,77.49-64,91.27s-81.85,1.78-107.77-29.41c-26.13-31.45-29.4-77.44-8.12-112.33C734.45,904,776,885.81,815.71,893.93c44.86,9.18,77.25,49.51,77.57,95.08a1.5,1.5,0,0,0,3,0c-.3-41.83-26.73-79.93-66.22-94.16S745,893.38,718.54,926c-26.26,32.47-29.54,79.24-7.76,115a101,101,0,0,0,105.06,46.12c46.46-9.17,80.11-51,80.44-98.1A1.5,1.5,0,0,0,893.28,989Z"/><path class="cls-1" d="M735.35,858.15c-.28,56.73-36.26,108.76-89.81,128.11s-114.69,2.65-151.08-40.94c-36.79-44.06-41.62-108.51-11.93-157.61C512,739,570.34,713.34,626.16,724.62c55,11.11,98.54,56.47,107.49,111.86a140.48,140.48,0,0,1,1.7,21.67,1.5,1.5,0,0,0,3,0c-.29-57.66-36.58-110.37-90.76-130.54-55.07-20.51-118.89-3.14-156.09,42.26-36.92,45.06-41.76,110.34-11.56,160.24,30.08,49.7,89.37,75.83,146.35,64.6C683,983.55,728.1,936.42,736.75,879.27a144.84,144.84,0,0,0,1.6-21.12A1.5,1.5,0,0,0,735.35,858.15Z"/><path class="cls-1" d="M229.21,843.27c-.28,47-29.89,90.11-74.21,106.32-44.58,16.3-95.72,2.45-126.09-34s-34.47-89.9-10-130.61,72.86-62,119.3-52.77c45.76,9.16,82,46.78,89.54,92.83a115.75,115.75,0,0,1,1.45,18.21,1.5,1.5,0,0,0,3,0c-.29-48.16-30.52-92.13-75.78-109-45.83-17.07-99-2.69-130.06,35-30.93,37.53-35.14,92-10,133.75,25,41.57,74.43,63.5,122,54.28,47.44-9.2,85.3-48.61,92.51-96.4a122.86,122.86,0,0,0,1.34-17.66A1.5,1.5,0,0,0,229.21,843.27Z"/><path class="cls-1" d="M194.27,959.74c-6.53,36-32.85,65.81-68.14,75.93a96,96,0,0,1-110.79-138c18.88-34.79,58.48-54.84,97.7-49.31a96,96,0,0,1,81.23,111.39c-.31,1.89,2.58,2.7,2.9.79,7.7-47.2-19.11-94.51-64.6-110.48-39.21-13.78-84-1-110,31.4C-3.06,913.35-6.24,959,14.72,994.09A99.84,99.84,0,0,0,112,1041.6c42.81-5.38,77.46-38.76,85.15-81.07C197.51,958.65,194.62,957.84,194.27,959.74Z"/><path class="cls-1" d="M380.82,656.94c-.28,52.3-33.39,100.31-82.76,118.19s-106.13,2.47-139.75-38-38.17-99.65-11.09-144.81S228.32,523.26,280,533.7c50.7,10.23,90.87,52,99.2,103a130.47,130.47,0,0,1,1.61,20.23,1.5,1.5,0,0,0,3,0c-.29-53.47-34-102.31-84.34-120.85-50.71-18.68-109.4-2.7-143.7,39S116.92,677.33,145,723.59c27.81,45.86,82.57,69.95,135.18,59.63,52.4-10.29,94.11-53.8,102.16-106.59a135.12,135.12,0,0,0,1.51-19.69A1.5,1.5,0,0,0,380.82,656.94Z"/><path class="cls-2" d="M926.17,986.51c-7.28,6.5-14.82,12.79-22.55,18.81-5.28,4.14-10.68,8.14-16.19,12a433.09,433.09,0,0,1-56.67,33.9c-3.1,1.55-6.24,3.07-9.38,4.55s-6.07,2.81-9.17,4.18a6.83,6.83,0,0,1-.89.37c-.41.18-.78.37-1.18.51-2.48,1.11-5,2.18-7.43,3.18l-1.08.45c-2.51,1-5,2.07-7.57,3l-1.19.44c-.55.26-1.1.44-1.66.67-2.4.92-4.84,1.81-7.28,2.69l-1,.34a3.12,3.12,0,0,1-.74.26c-.3.11-.59.22-.93.33-1.77.63-3.55,1.26-5.32,1.85a.68.68,0,0,0-.26.07c-.66.26-1.37.48-2.07.7-.89.34-1.77.63-2.7.89q-3.66,1.21-7.32,2.33c-.62.18-1.22.41-1.84.55-3.07.93-6.14,1.82-9.25,2.67h0c-2,.55-4,1.1-6.07,1.62-.14,0-.25.08-.4.11a3.29,3.29,0,0,1-.78.23c-4.58,1.18-9.2,2.29-13.82,3.32-2,.48-4.11.93-6.18,1.33-1.7.37-3.4.71-5.14,1s-3.17.63-4.8.92c-1.81.33-3.59.67-5.4,1-2.4.45-4.8.82-7.24,1.19-4.85.74-9.73,1.4-14.61,2l-6.87.78c-2.11.22-4.25.41-6.4.59-1.51.15-3,.3-4.58.41-.85.07-1.7.11-2.59.18s-1.73.11-2.62.19-1.7.11-2.59.14l-4,.23c-1.85.11-3.7.18-5.55.25-.77,0-1.55,0-2.33.08-2.36.11-4.73.15-7.13.18s-5,.08-7.58.08a437.22,437.22,0,0,1-62.66-4.48c-1.92-.25-3.84-.55-5.73-.85-1-.14-2-.33-3-.48-2.18-.37-4.36-.74-6.5-1.14s-4.07-.74-6.1-1.15l-1.92-.33-6.77-1.44c-.11,0-.18,0-.3-.08-2.21-.48-4.39-1-6.57-1.48-.37-.11-.78-.18-1.15-.29-1.89-.41-3.81-.89-5.69-1.37-.71-.18-1.37-.33-2-.52-2.29-.59-4.54-1.18-6.8-1.81-2.44-.66-4.88-1.37-7.32-2.07l-2.66-.77a8.45,8.45,0,0,1-.81-.26,437.27,437.27,0,0,1-283.2-265.86,111.37,111.37,0,0,0-6.32-18.15c2,6.13,4.06,12.16,6.32,18.15a116.17,116.17,0,0,1-22.36,102,104.76,104.76,0,0,1-9.91,10.68,96.6,96.6,0,0,0-12.64-33.71s0-.07-.12-.11a95.41,95.41,0,0,0-15.41-19.48A274.14,274.14,0,0,1,114.4,725.38a278,278,0,0,1,21-120.25,2.32,2.32,0,0,0,.3.26,123.48,123.48,0,0,1,83.4-75A437.18,437.18,0,0,1,328.25,350.91a354,354,0,0,1,406.48-57.07,357.88,357.88,0,0,1,4.14,54.45c0,3.32,0,6.65-.15,10s-.22,6.43-.41,9.61c0,.52,0,1-.07,1.55-.15,2.44-.3,4.84-.52,7.25-.07,1.29-.18,2.58-.33,3.84-.15,2-.33,4.1-.59,6.14-.08,1-.19,2.07-.34,3.1-.18,1.7-.4,3.4-.62,5.1-.19,1.52-.41,3-.63,4.55-.3,2.29-.67,4.58-1,6.84-.07.44-.15.85-.22,1.29-.33,2.18-.74,4.33-1.15,6.47-.25,1.44-.51,2.89-.81,4.29-.15.81-.33,1.63-.52,2.4-.4,2.18-.88,4.37-1.36,6.51-.67,2.88-1.34,5.73-2,8.54-1.37,5.4-2.84,10.72-4.47,16a2.81,2.81,0,0,1-.19.62c-.44,1.56-1,3.11-1.47,4.66-.56,1.85-1.15,3.7-1.78,5.51-.81,2.4-1.66,4.8-2.51,7.17-.48,1.37-1,2.74-1.52,4.07-.77,2.1-1.59,4.21-2.44,6.32-.15.37-.26.7-.4,1-.93,2.3-1.85,4.55-2.85,6.81-.3.81-.67,1.58-1,2.36-1.11,2.55-2.25,5.07-3.4,7.58-1.33,2.85-2.66,5.65-4.07,8.46-1.1,2.3-2.25,4.55-3.43,6.77-.37.74-.78,1.48-1.15,2.22-1.37,2.55-2.77,5.06-4.18,7.57-1.51,2.74-3.06,5.44-4.69,8.1-1.85,3.14-3.77,6.21-5.73,9.24-1.3,2.07-2.66,4.11-4,6.14a12.85,12.85,0,0,1-.89,1.33c-1.22,1.85-2.51,3.66-3.81,5.47a25.45,25.45,0,0,1-1.51,2.14c-1.55,2.22-3.18,4.44-4.81,6.58q-2.72,3.66-5.54,7.25a.93.93,0,0,1-.19.22c-1.88,2.4-3.84,4.77-5.8,7.14s-4,4.73-6.06,7.06-4.11,4.62-6.21,6.87c-1.89,2.07-3.85,4.14-5.84,6.18-2.7,2.77-5.44,5.5-8.25,8.13-1.29,1.29-2.58,2.55-3.92,3.73-.92.93-1.88,1.78-2.84,2.66-1.89,1.74-3.81,3.48-5.77,5.18-5.06,3.95-10,8.09-14.82,12.35l0,0-.33.3a380.13,380.13,0,0,0-47.5,50.09c-2.07,2.55-4.07,5.17-6,7.83a376.53,376.53,0,0,0-27.06,41.48q-4.81,8.6-9.17,17.41c-1.47,3-2.92,6-4.32,9-1.11,2.33-2.18,4.7-3.18,7.06q-6.54,14.8-11.75,30.28c-2,5.8-3.81,11.71-5.51,17.67a378.88,378.88,0,0,0-14.53,104.28q0,17.29,1.55,34.23c.22,2.44.45,4.84.74,7.28s.52,4.77.85,7.14c.19,1.7.41,3.4.67,5.06.15,1.15.29,2.25.48,3.36s.29,2,.44,3c.37,2.47.81,4.91,1.26,7.39l.22,1.11a4.86,4.86,0,0,0,.15.81c.44,2.48.89,4.92,1.4,7.32,0,.11,0,.22.08.3a5.06,5.06,0,0,0,.18.77,17,17,0,0,0,1.3,6.21v0a17.26,17.26,0,0,0,32.34-1.55,1.07,1.07,0,0,0,.19.07,188.07,188.07,0,0,1,13.45-37.48c1.55-3.18,3.18-6.32,4.92-9.39.7-1.33,1.44-2.59,2.22-3.88s1.7-2.85,2.55-4.25c0,0,0,0,0,0,1.08-1.77,2.22-3.47,3.37-5.21s2.29-3.37,3.43-5c1-1.33,2-2.62,3-3.95.7-1,1.44-2,2.22-2.89,1-1.33,2.07-2.62,3.14-3.92,1-1.14,1.89-2.25,2.89-3.36,1.11-1.29,2.25-2.55,3.4-3.81.77-.88,1.59-1.77,2.44-2.62.44-.45.88-.93,1.33-1.37.92-1,1.88-2,2.88-2.92,2-2,4.07-3.88,6.14-5.77,1-.92,2.07-1.85,3.1-2.73a8.28,8.28,0,0,1,.67-.56c1.37-1.18,2.77-2.36,4.17-3.51.12-.07.19-.15.3-.22,1.48-1.18,3-2.37,4.55-3.51s3.07-2.29,4.65-3.44c1.34-.92,2.7-1.89,4.07-2.77s2.63-1.74,4-2.59c1.11-.7,2.22-1.41,3.37-2.07s2.62-1.59,4-2.33,2.78-1.59,4.18-2.33l0,0c1.55-.85,3.14-1.66,4.73-2.43,1.07-.56,2.14-1.08,3.22-1.59,1.33-.67,2.69-1.3,4.06-1.89,3.55-1.63,7.17-3.1,10.87-4.51.29-.11.59-.22.85-.3,1.74-.66,3.51-1.29,5.29-1.88,1.95-.7,3.88-1.29,5.84-1.89q2.49-.77,5-1.44c.88-.22,1.77-.48,2.66-.66,1.81-.52,3.58-.93,5.4-1.33,3.54-.82,7.17-1.52,10.79-2.11a2.65,2.65,0,0,1,.59-.07c1.74-.3,3.44-.56,5.18-.78,2.32-.33,4.65-.59,7-.81a178,178,0,0,1,18.41-.93,189.45,189.45,0,0,1,98.81,27.73q7.2,4.38,14,9.42a95.16,95.16,0,0,0-13.86-.44A96.49,96.49,0,0,0,785,890.14a102.06,102.06,0,0,0-59.85,33.08c-1.66,1.89-3.29,3.81-4.73,5.81a73.28,73.28,0,0,0-4.88,6.87q-6,7.32-12.75,14a188.73,188.73,0,0,1-72.23,44.77c-5.07,1.26-10,2.74-14.94,4.4,5.07-1.26,10.06-2.74,14.94-4.4a208.75,208.75,0,0,1,51-6.28q9,0,17.75.77a206.42,206.42,0,0,1,66,16.71c1.15.56,2.29,1.07,3.48,1.59A150.76,150.76,0,0,0,886.32,1010a135.51,135.51,0,0,0,17.75-8.47A145.09,145.09,0,0,0,926.17,986.51Z"/></g></g></svg>