<svg xmlns="http://www.w3.org/2000/svg" viewBox="0 0 718.32 620.79"><defs><style>.cls-1{fill:none;stroke:#65c8d0;stroke-miterlimit:10;stroke-width:2px;}.cls-2{fill:#fff;}.cls-3{fill:#4d4d4d;}.cls-4{fill:#f0493e;}.cls-5{fill:#e6e6e6;}.cls-6{fill:#fdb740;}.cls-7{fill:#65c8d0;}</style></defs><title>rocketpathsfinal</title><g id="Layer_2" data-name="Layer 2"><g id="Layer_1-2" data-name="Layer 1"><circle class="cls-1" cx="359.16" cy="226.18" r="225.14"/><circle class="cls-1" cx="492.14" cy="353.82" r="225.14"/><circle class="cls-1" cx="226.18" cy="353.82" r="225.14"/><circle class="cls-1" cx="359.16" cy="373.06" r="126.03"/><circle class="cls-1" cx="260.65" cy="446.87" r="60.1"/><circle class="cls-1" cx="457.67" cy="446.87" r="60.1"/><circle class="cls-1" cx="359.16" cy="494.59" r="62.79"/><circle class="cls-1" cx="359.16" cy="328.34" r="49.82"/><circle class="cls-1" cx="359.16" cy="328.34" r="35.08"/><circle class="cls-1" cx="359.16" cy="135.47" r="120.7"/><ellipse class="cls-2" cx="360.41" cy="328.91" rx="49.58" ry="49.55" transform="translate(-127.06 350.03) rotate(-44.86)"/><path class="cls-3" d="M408.47,328.08c0,20-12,38.56-30.91,45.75a48.08,48.08,0,1,1-8.31-92.17c22.31,4.22,38.54,23.91,39.22,46.42.06,1.93,3.06,1.94,3,0a51.88,51.88,0,0,0-34.3-47.39c-20.21-7.15-43.34-.31-56.67,16.38a51.09,51.09,0,0,0,50.18,81.87c24-4.86,40.84-26.63,40.79-50.86A1.5,1.5,0,0,0,408.47,328.08Z"/><path class="cls-4" d="M272.46,313.4A223.71,223.71,0,0,0,271,387.48a60,60,0,0,0-34.64,5.15,125.53,125.53,0,0,1,47.11-118.34A226,226,0,0,0,272.46,313.4Z"/><path class="cls-3" d="M271,313a231.46,231.46,0,0,0-1.45,74.88l1.85-1.85a63.8,63.8,0,0,0-35.8,5.3l2.2.9a125.47,125.47,0,0,1,46.73-116.88L282,273.89A235.7,235.7,0,0,0,271,313c-.36,1.89,2.53,2.7,2.89.8a236.67,236.67,0,0,1,11-39.11c.59-1.57-1.48-2.27-2.51-1.46A128.42,128.42,0,0,0,234.93,393c.15,1,1.43,1.25,2.2.89a60.27,60.27,0,0,1,33.49-5,1.52,1.52,0,0,0,1.84-1.84,227.26,227.26,0,0,1,1.45-73.28C274.26,311.91,271.36,311.1,271,313Z"/><path class="cls-4" d="M485.7,373.7a126.61,126.61,0,0,1-1.56,19.51,60,60,0,0,0-34.68-5.3,222.79,222.79,0,0,0-11.88-113.26A125.18,125.18,0,0,1,485.7,373.7Z"/><path class="cls-3" d="M484.2,373.7a135.86,135.86,0,0,1-1.51,19.11l2.21-.89a63.33,63.33,0,0,0-35.44-5.51l1.45,1.89a228.13,228.13,0,0,0-11.88-114l-2.51,1.46a125.52,125.52,0,0,1,47.68,98,1.5,1.5,0,0,0,3,0,128.37,128.37,0,0,0-48.56-100.11c-1-.82-3.09-.11-2.51,1.46A225,225,0,0,1,448,387.51c-.13.83.37,2,1.44,1.9a60.61,60.61,0,0,1,33.92,5.1c.77.36,2.05.15,2.2-.9a141.29,141.29,0,0,0,1.62-19.91A1.5,1.5,0,0,0,484.2,373.7Z"/><path class="cls-2" d="M421.36,240.77a224.72,224.72,0,0,0-60.54-67.3,224,224,0,0,0-61,67,119.68,119.68,0,0,0,60.75,16.65,119.67,119.67,0,0,0,60.78-16.33Z"/><path class="cls-3" d="M422.65,240a230.34,230.34,0,0,0-61.08-67.84,1.46,1.46,0,0,0-1.51,0,229.66,229.66,0,0,0-61.52,67.52,1.51,1.51,0,0,0,.54,2.05,123.11,123.11,0,0,0,123,.32,1.5,1.5,0,0,0-1.51-2.59,120,120,0,0,1-120-.32l.54,2.06a225.56,225.56,0,0,1,26.42-35.85q7.21-8,15.17-15.21,4-3.61,8.1-7c1.48-1.23,3-2.43,4.49-3.62,1.07-.84,3.64-3.62,4.94-3.76,2.95-.31,6.67,4.27,8.89,6.1q4.58,3.76,8.95,7.76,8.1,7.43,15.44,15.59a227.66,227.66,0,0,1,26.53,36.33A1.5,1.5,0,0,0,422.65,240Z"/><path class="cls-5" d="M437.58,274.65a223.77,223.77,0,0,0-16.22-33.88,120,120,0,0,1-121.53-.32,221.87,221.87,0,0,0-16.34,33.84,226,226,0,0,0-11,39.11A223.71,223.71,0,0,0,271,387.48a220.71,220.71,0,0,0,7.78,33.91q2.65,8.48,6,16.67a223.61,223.61,0,0,0,34.09,9.28l.62.12,2.43.44,2.42.41,2,.32.76.12c1.33.2,2.67.4,4,.57l1.59.21c1.25.16,2.49.3,3.73.44l2,.21q3.87.39,7.73.65l1.95.12,4.35.21,1.5,0,3.83.09h.55c1.5,0,3,0,4.49,0l1.77,0h.09l1.4,0,2.07-.06,1.88-.07,1.7-.08,1.16-.05c1.41-.08,2.81-.16,4.21-.27.76-.06,1.53-.11,2.28-.18l.33,0,1.25-.11.18,0,1.73-.16c1.62-.16,3.23-.33,4.85-.53l1.49-.19c1.35-.17,2.7-.36,4.05-.56l1.73-.26,1.08-.17,2.33-.38c1-.17,2.07-.36,3.11-.55a222.46,222.46,0,0,0,34.09-9.17q3.31-8.15,6-16.65a225,225,0,0,0,6.67-26.64c.45-2.41.87-4.82,1.23-7.22A222.79,222.79,0,0,0,437.58,274.65ZM361.23,378.47A49.57,49.57,0,1,1,410,330,49.58,49.58,0,0,1,361.23,378.47Z"/><path class="cls-3" d="M361.23,377c-20,0-38.56-12-45.74-30.91a48.08,48.08,0,1,1,92.17-8.31c-4.23,22.31-23.91,38.54-46.43,39.22-1.92,0-1.93,3,0,3a51.89,51.89,0,0,0,47.39-34.3c7.15-20.21.31-43.34-16.38-56.67a51.08,51.08,0,0,0-81.86,50.18c4.85,24,26.63,40.84,50.85,40.79A1.5,1.5,0,0,0,361.23,377Z"/><path class="cls-3" d="M439,274.25A236.88,236.88,0,0,0,422.65,240a1.53,1.53,0,0,0-2-.54,120,120,0,0,1-120-.32,1.53,1.53,0,0,0-2,.54,228.25,228.25,0,0,0-31.26,106.42,224.23,224.23,0,0,0,12.3,82.42c1,2.77,1.94,8.09,3.88,10.29s7.69,3,10.51,3.89a225.22,225.22,0,0,0,138.49-1.63c3.06-1,4.05-1,5.2-3.9q2.63-6.57,4.8-13.32A226.15,226.15,0,0,0,439,274.25c-.68-1.79-3.58-1-2.9.8A222.83,222.83,0,0,1,437,430.61c-1.69,4.63-2.3,6.6-7.06,8.16q-6.62,2.18-13.36,3.93A221.4,221.4,0,0,1,310,444q-5.89-1.38-11.72-3.07c-3.57-1-10.32-1.93-12.76-4.86-2.12-2.54-3.18-8.51-4.22-11.65q-2.13-6.45-3.87-13a221.26,221.26,0,0,1-7.34-53.82,225,225,0,0,1,31-116.32l-2.05.53a123.11,123.11,0,0,0,123,.32l-2.05-.54a231.38,231.38,0,0,1,16.07,33.53C436.82,276.83,439.72,276.06,439,274.25Z"/><ellipse class="cls-6" cx="360.41" cy="328.91" rx="49.58" ry="49.55" transform="translate(-127.06 350.03) rotate(-44.86)"/><path class="cls-3" d="M408.47,328.08c0,20-12,38.56-30.91,45.75a48.08,48.08,0,1,1-8.31-92.17c22.31,4.22,38.54,23.91,39.22,46.42.06,1.93,3.06,1.94,3,0a51.88,51.88,0,0,0-34.3-47.39c-20.21-7.15-43.34-.31-56.67,16.38a51.09,51.09,0,0,0,50.18,81.87c24-4.86,40.84-26.63,40.79-50.86A1.5,1.5,0,0,0,408.47,328.08Z"/><circle class="cls-7" cx="360.41" cy="328.91" r="34.9"/><path class="cls-3" d="M393.81,329c-.31,14.08-9,26.84-22.47,31.48A33.4,33.4,0,1,1,367,296.15c15.69,3.11,26.57,17.07,26.85,32.84,0,1.93,3,1.94,3,0a36.41,36.41,0,1,0-29.89,35.72c17.32-3.06,29.5-18.41,29.89-35.72C396.85,327.06,393.85,327.06,393.81,329Z"/><path class="cls-4" d="M421.36,240.77a120,120,0,0,1-121.53-.32,224,224,0,0,1,61-67A224.72,224.72,0,0,1,421.36,240.77Z"/><path class="cls-3" d="M420.6,239.47a120,120,0,0,1-120-.32l.54,2.06a225.56,225.56,0,0,1,26.42-35.85q7.21-8,15.17-15.21,4-3.61,8.1-7c1.48-1.23,3-2.43,4.49-3.62,1.07-.84,3.64-3.62,4.94-3.76,2.95-.31,6.67,4.27,8.89,6.1q4.58,3.76,8.95,7.76,8.1,7.43,15.44,15.59a227.66,227.66,0,0,1,26.53,36.33,1.5,1.5,0,0,0,2.59-1.51,230.34,230.34,0,0,0-61.08-67.84,1.46,1.46,0,0,0-1.51,0,229.66,229.66,0,0,0-61.52,67.52,1.51,1.51,0,0,0,.54,2.05,123.11,123.11,0,0,0,123,.32A1.5,1.5,0,0,0,420.6,239.47Z"/><path class="cls-5" d="M421.44,482.91c-2.57,1.43-5.19,2.78-7.86,4h0l-.61.28q-3.5,1.63-7.1,3a126,126,0,0,1-91.6-.18q-3.64-1.44-7.17-3.11l-.61-.28h0c-2.67-1.27-5.28-2.63-7.85-4.07a61.33,61.33,0,0,1,3.1-10.84,62.49,62.49,0,0,1,17.11-24.44l.62.12,2.43.44,2.42.41,2,.32.76.12c1.33.2,2.67.4,4,.57l1.59.21c1.25.16,2.49.3,3.73.44l2,.21q3.87.39,7.73.65l1.95.12,4.35.21,1.5,0,3.83.09h.55c1.5,0,3,0,4.49,0l1.77,0h.09l1.4,0,2.07-.06,1.88-.07,1.7-.08,1.16-.05c1.41-.08,2.81-.16,4.21-.27.76-.06,1.53-.11,2.28-.18l.33,0,1.25-.11.18,0,1.73-.16c1.62-.16,3.23-.33,4.85-.53l1.49-.19c1.35-.17,2.7-.36,4.05-.56l1.73-.26,1.08-.17,2.33-.38c1-.17,2.07-.36,3.11-.55a62.47,62.47,0,0,1,16.95,24.53A61.1,61.1,0,0,1,421.44,482.91Z"/><path class="cls-3" d="M420.69,481.61a125.71,125.71,0,0,1-121.29-.29l.69,1.69a63.22,63.22,0,0,1,9.17-22.47,60.4,60.4,0,0,1,7.21-8.89c.52-.53,1.95-2.51,2.6-2.74,1-.35,3.78.67,4.85.85a224,224,0,0,0,71.43.38c3.94-.61,5.48-1.32,8.48,1.78a61.24,61.24,0,0,1,6.71,8.27A63,63,0,0,1,420,483.31c.38,1.89,3.27,1.09,2.89-.8A63.85,63.85,0,0,0,407,450.94c-1.46-1.58-3.38-4.29-5.56-4.85-2.35-.61-7.52,1.26-10,1.61-3.51.5-7,.89-10.55,1.21-6,.55-12.09.84-18.14.9a223.29,223.29,0,0,1-24.4-1.13c-3.91-.4-7.8-.89-11.67-1.5-2.24-.35-5.66-1.71-7.86-1.34s-4.18,3.32-5.59,4.83a63.71,63.71,0,0,0-16.06,31.55,1.54,1.54,0,0,0,.69,1.69,129.38,129.38,0,0,0,124.31.29C423.89,483.27,422.38,480.68,420.69,481.61Z"/><path class="cls-6" d="M416.16,512.46a98.41,98.41,0,0,1-41.74,80.38h0c-.41.27-.82.56-1.23.85a42.23,42.23,0,0,0-9.52,9.49,41.62,41.62,0,0,0-7.08,16.12,67,67,0,0,1-19.3-32.78c-.06-.27-.13-.53-.19-.79a67,67,0,0,1-1.77-15.56c0-1.92.09-3.83.25-5.71a40.63,40.63,0,0,0,.56-4.58c.06-.86.09-1.73.09-2.6a40.9,40.9,0,0,0-6.34-21.94,34.08,34.08,0,0,0-.32,43.59A98.38,98.38,0,0,1,304.3,522.6c-.18-1.75-.31-3.52-.4-5.3s-.12-3.39-.12-5.11A99.36,99.36,0,0,1,307.1,487q3.52,1.66,7.17,3.11a126,126,0,0,0,91.6.18q3.6-1.41,7.1-3a98.54,98.54,0,0,1,2.91,17.46C416.07,507.25,416.17,509.84,416.16,512.46Z"/><path class="cls-3" d="M414.66,512.46a98,98,0,0,1-22.1,61.48c-6.35,7.71-13.82,13.5-21.64,19.59a44.13,44.13,0,0,0-15.79,25.38l2.51-.66A66.29,66.29,0,0,1,337,575.49c-.55-7.31,1.17-14.5.56-21.78a43.56,43.56,0,0,0-6.39-19.11,1.52,1.52,0,0,0-2.36-.31A36.22,36.22,0,0,0,328.5,580l2.12-2.12a98.53,98.53,0,0,1-22.08-90.51l-2.2.9a128.61,128.61,0,0,0,107.39.25l-2.21-.9a104.05,104.05,0,0,1,3.14,24.84,1.5,1.5,0,0,0,3,0,107.55,107.55,0,0,0-3.24-25.64,1.53,1.53,0,0,0-2.21-.89,125.32,125.32,0,0,1-104.35-.25,1.52,1.52,0,0,0-2.21.89A101.63,101.63,0,0,0,328.5,580c1.32,1.47,3.28-.64,2.12-2.12a33.08,33.08,0,0,1,.32-41.46l-2.35-.31a40.33,40.33,0,0,1,6,23.78c-.52,7.78-1.09,15.12.32,22.89a69.31,69.31,0,0,0,20.57,37.59,1.52,1.52,0,0,0,2.51-.66,41.69,41.69,0,0,1,7.85-16.94c3.65-4.63,8.32-7.76,12.92-11.32a100.2,100.2,0,0,0,38.86-79A1.5,1.5,0,0,0,414.66,512.46Z"/></g></g></svg>